<?xml version="1.0" ?>
<svg  xmlns="http://www.w3.org/2000/svg">
    <symbol id="edit"  viewBox="0 0 512 512" fill="currentColor">
        <path d="M93.317,350,278.343,164.97a8,8,0,0,1,11.314,0l57.372,57.373a8,8,0,0,1,0,11.314L162,418.683a8,8,0,0,1-8.808,1.7l-40.161-17.211a8,8,0,0,1-4.2-4.2L91.62,358.805A8,8,0,0,1,93.317,350Zm402.3-198.664a47.681,47.681,0,0,0-14.177-33.975L394.16,30.69a48.1,48.1,0,0,0-67.719.073L266.348,90.7a8,8,0,0,0,0,11.318L409.986,245.657a8,8,0,0,0,11.318,0l60.249-60.294A47.673,47.673,0,0,0,495.612,151.333ZM22.811,442.125a4,4,0,0,0-6.829,2.827l0,27.06a24,24,0,0,0,23.985,23.966H40l27.012,0a4,4,0,0,0,2.829-6.828ZM81.335,339.351l185.7-185.694a8,8,0,0,0,0-11.314l-20.5-20.5a8,8,0,0,0-11.309,0L36.731,319.986a6,6,0,0,0,2.341,9.939l34.077,11.358A8,8,0,0,0,81.335,339.351Zm73.347,102a8,8,0,0,0-4.438-4.824l-49.395-21.169a8,8,0,0,1-4.2-4.2l-21.17-49.4a8,8,0,0,0-4.823-4.438L24.86,342.053a6.028,6.028,0,0,0-7.727,4.246A35.256,35.256,0,0,0,16,355.193l-.009,54.167a8,8,0,0,0,2.343,5.658l78.627,78.627a8.005,8.005,0,0,0,5.656,2.344L156.8,496h0a35.2,35.2,0,0,0,8.892-1.133,6.027,6.027,0,0,0,4.247-7.727ZM358.343,244.971,172.649,430.665a8,8,0,0,0-1.932,8.186l11.36,34.082a6,6,0,0,0,9.937,2.342L390.205,276.826a8,8,0,0,0,0-11.31l-20.545-20.545A8,8,0,0,0,358.343,244.971Z" />
    </symbol>
</svg>